<svg width="80" height="60" viewBox="0 0 80 60" fill="none" xmlns="http://www.w3.org/2000/svg">
<path d="M10 13.125C9.33696 13.125 8.70107 13.3225 8.23223 13.6742C7.76339 14.0258 7.5 14.5027 7.5 15C7.5 15.4973 7.76339 15.9742 8.23223 16.3258C8.70107 16.6774 9.33696 16.875 10 16.875H15.55L22.11 36.5625C22.6675 38.2312 24.66 39.375 26.9525 39.375H58.1275C60.385 39.375 62.3025 38.25 62.895 36.6187L69.375 18.75H64.14L58.125 35.625H26.95L20.3925 15.9375C20.1216 15.1298 19.4972 14.4136 18.6192 13.9037C17.7412 13.3938 16.6604 13.1196 15.55 13.125H10ZM55 39.375C50.8875 39.375 47.5 41.9156 47.5 45C47.5 48.0844 50.8875 50.625 55 50.625C59.1125 50.625 62.5 48.0844 62.5 45C62.5 41.9156 59.1125 39.375 55 39.375ZM32.5 39.375C28.3875 39.375 25 41.9156 25 45C25 48.0844 28.3875 50.625 32.5 50.625C36.6125 50.625 40 48.0844 40 45C40 41.9156 36.6125 39.375 32.5 39.375ZM40 13.125V22.5H32.5L42.5 30L52.5 22.5H45V13.125H40ZM32.5 43.125C33.91 43.125 35 43.9425 35 45C35 46.0575 33.91 46.875 32.5 46.875C31.09 46.875 30 46.0575 30 45C30 43.9425 31.09 43.125 32.5 43.125ZM55 43.125C56.41 43.125 57.5 43.9425 57.5 45C57.5 46.0575 56.41 46.875 55 46.875C53.59 46.875 52.5 46.0575 52.5 45C52.5 43.9425 53.59 43.125 55 43.125Z" fill="#FFF8F0"/>
</svg>
