<svg width="40" height="40" viewBox="0 0 40 40" fill="none" xmlns="http://www.w3.org/2000/svg">
<path d="M4.31567 10.4219C4.54004 10.4219 4.72192 10.3307 4.72192 10.2182C4.72192 10.1056 4.54004 10.0144 4.31567 10.0144C4.09131 10.0144 3.90942 10.1056 3.90942 10.2182C3.90942 10.3307 4.09131 10.4219 4.31567 10.4219Z" fill="white"/>
<path d="M7.70935 11.3594C8.22712 11.3594 8.64685 10.9396 8.64685 10.4219C8.64685 9.90411 8.22712 9.48438 7.70935 9.48438C7.19158 9.48438 6.77185 9.90411 6.77185 10.4219C6.77185 10.9396 7.19158 11.3594 7.70935 11.3594Z" fill="white"/>
<path d="M38.75 18.2294L38.5456 17.4713C38.4894 17.2656 37.4244 13.4656 34.3537 11.7656C37.1506 9.51501 37.7619 6.69126 37.7925 6.54251L37.9606 5.71814L37.2837 5.24751C37.1019 5.12126 35.42 4.00876 32.5731 4.00876C30.2744 4.00876 27.8931 4.73376 25.4944 6.16376C23.1838 7.54126 22.6231 9.72814 22.1287 11.6569C21.5 14.1144 20.9888 16.0669 17.25 16.9581C16.9442 16.9202 16.6394 16.8754 16.3356 16.8238L17.6631 15.5738C17.6631 15.5738 14.7531 16.5113 13.6556 15.5756C13.5931 15.5225 13.5238 15.4069 13.5287 15.1588C13.5387 14.705 14.1487 10.6238 14.15 9.44126C16.7531 8.83126 18.0369 6.14689 16.9294 5.47189C16.1475 4.99439 15.1644 6.23376 13.3444 6.63376C13.3612 6.39439 13.3663 6.14001 13.3406 5.85751C13.1987 4.27876 15.425 3.66814 15.155 2.85439C14.8044 1.79876 11.94 2.45001 10.5631 4.77376C10.3965 5.06097 10.2683 5.36881 10.1819 5.68939C10.1181 5.44076 10.0339 5.19785 9.93 4.96314C9.28937 3.51939 11.29 2.21439 10.6781 1.51189C9.86875 0.583139 7.51375 2.22126 6.96 4.88251C6.85077 5.44059 6.86571 6.01586 7.00375 6.56751C6.94875 6.51939 6.90313 6.47189 6.84313 6.42314C5.82563 5.61189 6.86 3.89314 6.09688 3.57564C5.00938 3.12126 4.02562 5.35689 4.61812 7.54251C4.74312 8.00251 4.99688 8.46314 5.32188 8.81501C3.27063 9.04689 1.75687 11.0213 1.69 11.1113L1.25 11.695L1.96312 11.6131C1.97125 11.6119 2.1375 11.5944 2.39375 11.5944C2.75187 11.5944 3.24312 11.6369 3.72625 11.7819C3.05062 12.4969 2.41688 13.3669 2.02 14.3863C1.10438 16.735 3.1825 15.5181 3.60563 15.5694C3.60563 15.5694 3.80625 15.8581 4.05875 16.0506C4.05625 16.1913 4.04562 16.3231 4.04562 16.4663C4.04562 18.2994 4.425 23.5994 4.44125 23.8238L4.555 25.4013L5.4975 24.1944C7.16937 29.0463 11.0531 33.0356 15.61 34.0513C16.1788 34.7506 17.06 35.4875 18.0594 35.7994C16.5281 37.9775 13.6944 38.1931 13.6944 38.75H22.3731C22.3731 38.1744 20.8306 38.3119 19.7706 35.8138C20.8544 35.4481 21.835 34.375 22.4819 33.3056C25.3337 32.0175 27.7412 29.5925 29.3106 26.6613C30.9587 27.2131 32.3794 27.2913 32.4944 27.2963L33.4013 27.3356L33.6931 26.4488C33.7406 26.305 34.6794 23.3994 34.2962 20.6206C36.585 20.1625 38.1012 18.8156 38.1769 18.7475L38.75 18.2294ZM4.21813 11.2944C3.66813 11.0756 3.09125 10.9925 2.63438 10.9738C3.23313 10.3688 4.3525 9.45626 5.63937 9.42189C5.43937 9.77251 5.255 10.1506 5.08687 10.5563C4.80813 10.7713 4.51437 11.0181 4.21813 11.2944ZM5.2575 16.4656C5.2575 13.0544 6.09188 10.6494 7.285 9.14314C7.3275 9.10939 7.37187 9.07814 7.41437 9.03814C7.75688 8.71626 8.60563 8.20939 9.12188 8.06689C9.50688 7.96126 10.4731 8.00376 11.0794 8.43376C11.6369 8.83189 12.0463 9.52939 12.86 9.56376C12.8856 9.56501 12.9094 9.56126 12.935 9.56189C12.9119 10.6963 12.3287 14.5963 12.3175 15.1306C12.3056 15.6563 12.4694 16.1119 12.79 16.4494C13.0525 16.7256 13.41 16.9175 13.8587 17.0231L12.5094 17.9494L13.6162 19.2913L10.7387 18.9831L11.1662 21.5438L8.5525 19.6038L8.1925 22.5594L6.6825 20.685L5.5425 22.145C5.425 20.385 5.2575 17.64 5.2575 16.4656ZM21.83 32.2331L21.6444 32.3138L21.5419 32.4925C20.7969 33.7956 19.7588 34.705 19.0187 34.705C18.1931 34.705 17.1275 34.0463 16.4269 33.1044L16.2869 32.9163L16.0619 32.8706C11.5881 31.9719 7.78937 27.9025 6.39875 23.04L6.69688 22.6594L9.04625 25.575L9.50063 21.8469L12.8631 24.3444L12.205 20.3975L16.2775 20.8344C14.6625 22.0725 13.8925 23.9444 14.2481 25.8894C14.6638 28.1575 16.5181 29.8431 18.9719 30.1844C19.5394 30.2631 20.1012 30.3025 20.6431 30.3025C24.8756 30.3025 26.8787 27.9219 26.9613 27.82L27.1969 27.5331L27.0613 27.1838C26.7306 26.3313 26.06 25.6863 25.5087 25.2706C26.7537 24.2525 27.4781 22.8744 27.5144 22.805L27.8244 22.2075L27.2219 21.9369C26.6194 21.6663 25.1462 21.4731 24.0619 21.3606C24.2916 21.046 24.5046 20.7195 24.7 20.3825L25.1081 19.6644L24.3244 19.4619C24.2806 19.45 23.235 19.1844 21.7738 19.1844C19.9588 19.1844 18.3456 19.5813 16.98 20.3644C16.7762 20.4819 16.5906 20.6138 16.4062 20.7481L14.315 18.2106L14.8656 17.8331C16.1412 18.0638 17.2425 18.2631 17.9369 18.2631C20.5225 18.2631 22.95 17.5069 24.9012 16.8988C26.29 16.4669 27.4894 16.0925 28.37 16.0925C28.9994 16.0925 30.0525 16.0925 30.0525 19.0994C30.0519 24.6538 26.5938 30.1769 21.83 32.2331ZM22.7931 22.5025C23.7031 22.5713 25.1206 22.7206 26.0219 22.8938C25.6206 23.4681 24.955 24.2694 24.1006 24.7388L23.0456 25.32L24.125 25.8544C24.1375 25.8606 25.2175 26.4038 25.7581 27.2931C25.1413 27.8544 23.4906 29.0525 20.6419 29.0525C20.1537 29.0525 19.6462 29.0163 19.1331 28.945C16.7931 28.6194 15.6906 27.0331 15.4381 25.6563C15.1344 23.9944 15.95 22.385 17.5688 21.4563C18.7525 20.7781 20.1669 20.4338 21.7738 20.4338C22.3081 20.4338 22.7819 20.4738 23.1556 20.5213C22.9487 20.8138 22.6906 21.1463 22.4088 21.4375L21.4756 22.4025L22.7931 22.5025ZM32.7888 19.5213C33.7906 22.2631 32.5444 26.0469 32.5444 26.0469C32.5444 26.0469 31.3113 25.9906 29.8594 25.535C30.7563 23.5163 31.2638 21.31 31.2638 19.0994C31.2638 17.2725 30.9637 14.8425 28.3687 14.8425C27.3088 14.8425 26.0306 15.2413 24.55 15.7019C23.3769 16.0675 22.11 16.4588 20.77 16.7181C24.1456 14.065 22.4712 9.40939 26.1 7.24501C28.665 5.71626 30.8606 5.25814 32.5719 5.25814C35.1306 5.25814 36.605 6.28376 36.605 6.28376C36.605 6.28376 35.7925 10.255 31.2031 12.2063C35.8744 12.2469 37.3762 17.8069 37.3762 17.8069C37.3762 17.8069 35.4794 19.5213 32.7888 19.5213Z" fill="white"/>
</svg>
