<svg width="48" height="48" viewBox="0 0 48 48" fill="none" xmlns="http://www.w3.org/2000/svg">
<g clip-path="url(#clip0_53_4)">
<path d="M35.226 31.032C38.1309 27.0681 39.432 22.1535 38.8689 17.2714C38.3059 12.3894 35.9202 7.90001 32.1893 4.70139C28.4584 1.50276 23.6573 -0.169193 18.7465 0.0200264C13.8358 0.209246 9.17756 2.24568 5.70381 5.72192C2.23006 9.19816 0.19696 13.8578 0.0112541 18.7687C-0.174451 23.6796 1.50094 28.4795 4.70223 32.2081C7.90353 35.9368 12.3946 38.3192 17.2771 38.8788C22.1595 39.4383 27.0732 38.1337 31.035 35.226H31.032C31.122 35.346 31.218 35.46 31.326 35.571L42.876 47.121C43.4385 47.6839 44.2016 48.0003 44.9974 48.0006C45.7933 48.0009 46.5566 47.685 47.1195 47.1225C47.6824 46.56 47.9988 45.7969 47.9991 45.0011C47.9994 44.2052 47.6835 43.4419 47.121 42.879L35.571 31.329C35.4638 31.2204 35.3484 31.1201 35.226 31.029V31.032ZM36 19.5C36 21.6668 35.5732 23.8124 34.744 25.8143C33.9148 27.8161 32.6994 29.6351 31.1673 31.1673C29.6351 32.6994 27.8162 33.9148 25.8143 34.744C23.8124 35.5732 21.6668 36 19.5 36C17.3332 36 15.1876 35.5732 13.1857 34.744C11.1839 33.9148 9.36491 32.6994 7.83275 31.1673C6.30058 29.6351 5.0852 27.8161 4.256 25.8143C3.42679 23.8124 3.00001 21.6668 3.00001 19.5C3.00001 15.1239 4.7384 10.9271 7.83275 7.83274C10.9271 4.73838 15.1239 3 19.5 3C23.8761 3 28.0729 4.73838 31.1673 7.83274C34.2616 10.9271 36 15.1239 36 19.5V19.5Z" fill="black"/>
</g>
<defs>
<clipPath id="clip0_53_4">
<rect width="48" height="48" fill="white"/>
</clipPath>
</defs>
</svg>
