<svg width="148" height="135" viewBox="0 0 148 135" fill="none" xmlns="http://www.w3.org/2000/svg">
<path d="M143.375 61.5241L142.619 58.9655C142.411 58.2715 138.47 45.4465 127.109 39.709C137.457 32.1131 139.719 22.583 139.832 22.0809L140.454 19.2987L137.95 17.7103C137.277 17.2842 131.054 13.5295 120.521 13.5295C112.015 13.5295 103.205 15.9764 94.3292 20.8027C85.7799 25.4517 83.7056 32.8324 81.8764 39.342C79.55 47.636 77.6584 54.2257 63.825 57.2337C62.6937 57.1057 61.5657 56.9545 60.4418 56.7802L65.3536 52.5614C65.3536 52.5614 54.5866 55.7255 50.5258 52.5677C50.2946 52.3884 50.0379 51.9982 50.0564 51.1608C50.0934 49.6294 52.3504 35.8552 52.355 31.8642C61.9866 29.8055 66.7364 20.7457 62.6387 18.4676C59.7458 16.856 56.1082 21.0389 49.3742 22.3889C49.4366 21.581 49.4551 20.7225 49.3603 19.7691C48.8354 14.4408 57.0725 12.3799 56.0735 9.63352C54.7762 6.07078 44.178 8.26875 39.0836 16.1114C38.4671 17.0807 37.9928 18.1197 37.6729 19.2016C37.437 18.3625 37.1253 17.5427 36.741 16.7505C34.3707 11.8779 41.773 7.47352 39.5091 5.10258C36.5144 1.96805 27.8009 7.49672 25.752 16.4784C25.3478 18.3619 25.4031 20.3035 25.9139 22.1653C25.7104 22.0029 25.5416 21.8426 25.3196 21.678C21.5548 18.9401 25.382 13.1393 22.5584 12.0677C18.5347 10.5342 14.8948 18.0795 17.0871 25.4559C17.5496 27.0084 18.4884 28.563 19.6909 29.7506C12.1013 30.5332 6.50044 37.1967 6.253 37.5005L4.625 39.4706L7.26356 39.1943C7.29363 39.1901 7.90875 39.131 8.85687 39.131C10.1819 39.131 11.9996 39.2745 13.7871 39.7638C11.2873 42.177 8.94244 45.1132 7.474 48.5536C4.08619 56.4806 11.7752 52.3737 13.3408 52.5466C13.3408 52.5466 14.0831 53.5212 15.0174 54.1709C15.0081 54.6455 14.9688 55.0905 14.9688 55.5736C14.9688 61.7604 16.3725 79.6479 16.4326 80.4052L16.8535 85.7292L20.3407 81.656C26.5267 98.0311 40.8966 111.495 57.757 114.923C59.8614 117.283 63.122 119.77 66.8197 120.823C61.1541 128.174 50.6692 128.902 50.6692 130.781H82.7806C82.7806 128.839 77.0733 129.303 73.1513 120.871C77.1612 119.637 80.7895 116.016 83.1829 112.406C93.7349 108.059 102.643 99.8747 108.449 89.9817C114.547 91.8443 119.804 92.108 120.229 92.1248L123.585 92.2577L124.665 89.2645C124.84 88.7794 128.314 78.9729 126.896 69.5946C135.365 68.0484 140.975 63.5027 141.254 63.2728L143.375 61.5241ZM15.6071 38.1185C13.5721 37.3802 11.4376 37.0997 9.74719 37.0364C11.9626 34.9945 16.1042 31.9148 20.8657 31.7988C20.1257 32.9822 19.4435 34.2584 18.8214 35.6273C17.7901 36.353 16.7032 37.1862 15.6071 38.1185ZM19.4527 55.5715C19.4527 44.0585 22.5399 35.9416 26.9545 30.858C27.1117 30.7441 27.2759 30.6387 27.4332 30.5037C28.7004 29.4173 31.8408 27.7066 33.7509 27.2257C35.1754 26.8692 38.7506 27.0127 40.9937 28.4639C43.0564 29.8076 44.5711 32.1616 47.582 32.2777C47.6768 32.2819 47.7647 32.2692 47.8595 32.2713C47.7739 36.0998 45.6164 49.2623 45.5747 51.0659C45.5308 52.8398 46.1367 54.3776 47.323 55.5166C48.2943 56.449 49.617 57.0966 51.2774 57.453L46.2847 60.5791L50.3801 65.108L39.7334 64.068L41.3151 72.7102L31.6443 66.1627L30.3123 76.1379L24.7253 69.8119L20.5072 74.7394C20.0725 68.7994 19.4527 59.535 19.4527 55.5715ZM80.771 108.787L80.0842 109.059L79.7049 109.662C76.9484 114.06 73.1074 117.129 70.3694 117.129C67.3146 117.129 63.3718 114.906 60.7794 111.727L60.2614 111.092L59.4289 110.938C42.8761 107.905 28.8207 94.1709 23.6754 77.76L24.7784 76.4754L33.4711 86.3156L35.1523 73.7332L47.5936 82.1623L45.1585 68.8416L60.2268 70.316C54.2513 74.4947 51.4023 80.8123 52.7181 87.3766C54.2559 95.0316 61.1171 100.721 70.1959 101.872C72.2957 102.138 74.3746 102.271 76.3796 102.271C92.0398 102.271 99.4514 94.2363 99.7566 93.8925L100.628 92.9243L100.127 91.7452C98.9033 88.868 96.422 86.6911 94.3824 85.2884C98.9889 81.8522 101.669 77.201 101.803 76.9669L102.95 74.9503L100.721 74.0369C98.4917 73.1236 93.0411 72.4718 89.0289 72.0921C89.8788 71.0302 90.6669 69.9283 91.39 68.7909L92.9001 66.3673L90.0002 65.6838C89.8383 65.6437 85.9695 64.7473 80.5629 64.7473C73.8474 64.7473 67.8788 66.0867 62.826 68.7298C62.0721 69.1263 61.3853 69.5714 60.7031 70.0249L52.9655 61.4609L55.0028 60.1868C59.7226 60.9652 63.7972 61.6381 66.3664 61.6381C75.9333 61.6381 84.915 59.0857 92.1346 57.0333C97.273 55.5757 101.711 54.3122 104.969 54.3122C107.298 54.3122 111.194 54.3122 111.194 64.4604C111.192 83.2064 98.3969 101.847 80.771 108.787ZM84.3346 75.9459C87.7016 76.178 92.9463 76.6821 96.2809 77.2664C94.7963 79.2049 92.3335 81.9091 89.1723 83.4933L85.2688 85.455L89.2625 87.2585C89.3087 87.2796 93.3048 89.1127 95.3051 92.1143C93.0226 94.0085 86.9153 98.0522 76.3749 98.0522C74.5689 98.0522 72.6911 97.9298 70.7926 97.6894C62.1346 96.5904 58.0553 91.2368 57.1211 86.5898C55.9972 80.981 59.015 75.5494 65.0044 72.4148C69.3843 70.1262 74.6174 68.9639 80.5629 68.9639C82.5401 68.9639 84.2929 69.0989 85.6758 69.2592C84.9104 70.2464 83.9553 71.3686 82.9124 72.3516L79.4598 75.6084L84.3346 75.9459ZM121.318 65.8842C125.025 75.138 120.414 87.9082 120.414 87.9082C120.414 87.9082 115.852 87.7184 110.48 86.1806C113.798 79.3673 115.676 71.9212 115.676 64.4604C115.676 58.2947 114.566 50.0934 104.964 50.0934C101.042 50.0934 96.3133 51.4392 90.835 52.9938C86.4944 54.2278 81.807 55.5483 76.849 56.4237C89.3388 47.4694 83.1436 31.7566 96.57 24.4519C106.06 19.2923 114.184 17.7462 120.516 17.7462C129.983 17.7462 135.439 21.2077 135.439 21.2077C135.439 21.2077 132.432 34.6106 115.452 41.1961C132.735 41.3332 138.292 60.0982 138.292 60.0982C138.292 60.0982 131.274 65.8842 121.318 65.8842Z" fill="white"/>
<path d="M15.9677 35.1738C16.7979 35.1738 17.4708 34.866 17.4708 34.4862C17.4708 34.1064 16.7979 33.7985 15.9677 33.7985C15.1376 33.7985 14.4646 34.1064 14.4646 34.4862C14.4646 34.866 15.1376 35.1738 15.9677 35.1738Z" fill="white"/>
<path d="M28.5247 38.3379C30.4404 38.3379 31.9934 36.9213 31.9934 35.1738C31.9934 33.4264 30.4404 32.0098 28.5247 32.0098C26.6089 32.0098 25.0559 33.4264 25.0559 35.1738C25.0559 36.9213 26.6089 38.3379 28.5247 38.3379Z" fill="white"/>
</svg>
